<svg width="66" height="42" viewBox="0 0 66 42" xmlns="http://www.w3.org/2000/svg"><path d="M61.63 41.9l4.14-3.33v-1.35c-3.15-2.43-4.41-4.59-4.41-9.27V14.81C61.36 5.36 54.7.14 46.24.14c-4.05 0-7.47 1.71-11.43 4.59l-1.08.81C30.94 2.03 26.62.14 21.58.14c-3.87 0-7.83 1.89-11.61 4.77C8.8 3.2 7.36 1.67 5.74.14H4.39L.25 3.47v1.35c3.15 2.43 4.41 4.59 4.41 9.27V41h7.38V16.43c0-4.41 3.06-8.64 8.55-8.64 5.31 0 8.73 3.69 8.73 8.37V41h7.38V16.16c0-4.32 3.15-8.37 8.55-8.37 5.31 0 8.73 3.69 8.73 8.37v14.13c0 4.77 2.7 8.28 6.3 11.61h1.35z" fill="#20201E"/></svg>